# Blender v2.77 (sub 0) OBJ File: 'Crate3.blend'
# www.blender.org
mtllib Crate3.mtl
o Crate03_Cube.002
v 0.461615 0.538435 0.418532
v 0.461615 0.670572 0.406023
v 0.435970 0.538435 0.418532
v 0.435970 0.670572 0.406023
v 0.465941 0.531951 -0.413598
v 0.464065 0.663600 -0.396822
v 0.440298 0.531585 -0.413589
v 0.438423 0.663234 -0.396813
v -0.461615 0.556879 0.414609
v -0.461615 0.689589 0.412475
v -0.435970 0.556879 0.414609
v -0.435970 0.689589 0.412475
v -0.461615 0.543725 -0.403314
v -0.461615 0.676434 -0.405448
v -0.435970 0.543725 -0.403314
v -0.435970 0.676434 -0.405448
v 0.448868 0.360078 0.413595
v 0.448868 0.492805 0.413595
v 0.435970 0.360078 0.413595
v 0.435970 0.492805 0.413595
v 0.448868 0.360078 -0.404434
v 0.448868 0.492805 -0.404434
v 0.435970 0.360078 -0.404434
v 0.435970 0.492805 -0.404434
v -0.461615 0.334353 0.408697
v -0.461615 0.466825 0.416921
v -0.435970 0.334353 0.408697
v -0.435970 0.466825 0.416921
v -0.461615 0.385036 -0.407760
v -0.461615 0.517508 -0.399536
v -0.435970 0.385036 -0.407760
v -0.435970 0.517508 -0.399536
v 0.461615 0.139058 0.429820
v 0.461615 0.297090 0.420065
v 0.435970 0.139058 0.429820
v 0.435970 0.297090 0.420065
v 0.461615 0.088660 -0.386655
v 0.461615 0.246692 -0.396410
v 0.435970 0.088660 -0.386655
v 0.435970 0.246692 -0.396410
v -0.459437 0.195514 0.413598
v -0.459437 0.328221 0.415957
v -0.438148 0.195514 0.413598
v -0.438148 0.328221 0.415957
v -0.459437 0.209704 -0.407415
v -0.459437 0.342411 -0.405057
v -0.438148 0.209704 -0.407415
v -0.438148 0.342411 -0.405057
v -0.461615 0.043327 0.391369
v -0.461615 0.176054 0.391369
v -0.435970 0.043327 0.391369
v -0.435970 0.176054 0.391369
v -0.461615 0.043327 -0.382207
v -0.461615 0.176054 -0.382207
v -0.435970 0.043327 -0.382207
v -0.435970 0.176054 -0.382207
v -0.451145 0.484352 0.461615
v -0.457030 0.616948 0.461615
v -0.451145 0.484352 0.435970
v -0.457030 0.616948 0.435970
v 0.451002 0.524387 0.461615
v 0.445117 0.656983 0.461615
v 0.451002 0.524387 0.435970
v 0.445117 0.656983 0.435970
v -0.456098 0.521143 -0.461615
v -0.456098 0.653870 -0.461615
v -0.456098 0.521143 -0.435970
v -0.456098 0.653870 -0.435970
v 0.446937 0.521143 -0.461615
v 0.446937 0.653870 -0.461615
v 0.446937 0.521143 -0.435970
v 0.446937 0.653870 -0.435970
v -0.460941 0.338707 0.461615
v -0.440861 0.469906 0.461615
v -0.460941 0.338707 0.435970
v -0.440861 0.469906 0.435970
v 0.431699 0.202086 0.461615
v 0.451780 0.333285 0.461615
v 0.431699 0.202086 0.435970
v 0.451780 0.333285 0.435970
v -0.458353 0.382259 -0.449113
v -0.453149 0.488953 -0.449113
v -0.458353 0.382259 -0.435970
v -0.453149 0.488953 -0.435970
v 0.443988 0.353779 -0.449113
v 0.449191 0.460473 -0.449113
v 0.443988 0.353779 -0.435970
v 0.449191 0.460473 -0.435970
v -0.444074 0.082280 0.461615
v -0.436505 0.214790 0.461615
v -0.444074 0.082280 0.435970
v -0.436505 0.214790 0.435970
v 0.422921 0.033469 0.461615
v 0.430491 0.165979 0.461615
v 0.422921 0.033469 0.435970
v 0.430491 0.165979 0.435970
v -0.448333 0.195712 -0.453750
v -0.454214 0.301395 -0.453750
v -0.448333 0.195712 -0.435970
v -0.454214 0.301395 -0.435970
v 0.399749 0.245454 -0.453750
v 0.393868 0.351137 -0.453750
v 0.399749 0.245454 -0.435970
v 0.393868 0.351137 -0.435970
v -0.458560 0.063053 -0.461225
v -0.452780 0.195654 -0.461225
v -0.458560 0.063053 -0.435970
v -0.452780 0.195654 -0.435970
v 0.443618 0.023726 -0.461225
v 0.449398 0.156327 -0.461225
v 0.443618 0.023726 -0.435970
v 0.449398 0.156327 -0.435970
v -0.429485 0.050701 -0.426164
v 0.429485 0.050701 0.426164
v 0.429485 0.050701 -0.426164
v 0.364473 -0.011727 0.435527
v 0.364473 0.687613 0.435527
v 0.364473 -0.011727 0.364473
v 0.364473 0.687613 0.364473
v 0.435527 -0.011727 0.435527
v 0.435527 0.687613 0.435527
v 0.435527 -0.011727 0.364473
v 0.435527 0.687613 0.364473
v 0.429485 0.016958 -0.426164
v -0.429485 0.016958 0.426164
v -0.429485 0.050701 0.426164
v -0.364473 -0.011727 0.435527
v -0.364473 0.687613 0.435527
v -0.364473 -0.011727 0.364473
v -0.364473 0.687613 0.364473
v -0.435527 -0.011727 0.435527
v -0.435527 0.687613 0.435527
v -0.435527 -0.011727 0.364473
v -0.435527 0.687613 0.364473
v 0.429485 0.016958 0.426164
v 0.364473 -0.011727 -0.435527
v 0.364473 0.687613 -0.435527
v 0.364473 -0.011727 -0.364473
v 0.364473 0.687613 -0.364473
v 0.435527 -0.011727 -0.435527
v 0.435527 0.687613 -0.435527
v 0.435527 -0.011727 -0.364473
v 0.435527 0.687613 -0.364473
v -0.429485 0.016958 -0.426164
v -0.364473 -0.011727 -0.435527
v -0.364473 0.687613 -0.435527
v -0.364473 -0.011727 -0.364473
v -0.364473 0.687613 -0.364473
v -0.435527 -0.011727 -0.435527
v -0.435527 0.687613 -0.435527
v -0.435527 -0.011727 -0.364473
v -0.435527 0.687613 -0.364473
v 0.435970 0.630712 -0.015010
v 0.435970 0.499886 0.011338
v 0.461615 0.630712 -0.015010
v 0.461615 0.499886 0.011338
v 0.439001 0.629245 -0.130037
v 0.466580 0.494360 -0.118540
v 0.440937 0.493993 -0.118531
v 0.464644 0.629612 -0.130046
v 0.465141 0.595034 -0.121168
v 0.465648 0.559845 -0.107488
v 0.466069 0.529750 -0.133801
v 0.439498 0.594668 -0.121159
v 0.440006 0.559478 -0.107479
v 0.440426 0.529384 -0.133792
v 0.461615 0.598988 0.001956
v 0.461615 0.566640 0.012328
v 0.461615 0.530991 -0.012160
v 0.435970 0.598988 0.001956
v 0.435970 0.566640 0.012328
v 0.435970 0.530991 -0.012160
v 0.398055 0.102681 0.435970
v 0.398055 0.102681 0.461615
v 0.423270 0.066756 0.435970
v 0.423270 0.066756 0.461615
v -0.264512 0.191403 0.435970
v -0.089706 0.195266 0.435970
v 0.082866 0.177495 0.435970
v 0.129476 0.189469 0.435970
v 0.129476 0.189469 0.461615
v 0.082866 0.177495 0.461615
v -0.089706 0.195266 0.461615
v -0.264512 0.191403 0.461615
v -0.155168 0.615113 0.435970
v -0.062162 0.643066 0.435970
v -0.062162 0.643066 0.461615
v -0.155168 0.615113 0.461615
v -0.435970 0.698193 0.090514
v -0.435970 0.665280 0.003514
v -0.435970 0.685690 -0.169256
v -0.461615 0.685690 -0.169256
v -0.461615 0.665280 0.003514
v -0.461615 0.698193 0.090514
v -0.440241 0.339491 0.005450
v -0.440241 0.224825 0.003091
v -0.457345 0.339491 0.005450
v -0.457345 0.224825 0.003091
v -0.004581 0.626254 -0.435970
v -0.004581 0.626254 -0.461615
vt 0.5807 0.8320
vt 0.5713 0.8320
vt 0.5713 0.7834
vt 0.5807 0.7834
vt 0.4813 0.7395
vt 0.4813 0.8381
vt 0.4326 0.8381
vt 0.4326 0.7290
vt 0.4448 0.7362
vt 0.4569 0.7281
vt 0.4691 0.7347
vt 0.5159 0.8278
vt 0.5254 0.8278
vt 0.5254 0.8762
vt 0.5159 0.8762
vt 0.0008 0.7739
vt 0.0008 0.6188
vt 0.0495 0.6188
vt 0.0495 0.7688
vt 0.0373 0.7763
vt 0.0251 0.7661
vt 0.0130 0.7688
vt 0.5144 0.8367
vt 0.5049 0.8367
vt 0.5049 0.7281
vt 0.5144 0.7281
vt 0.4829 0.7281
vt 0.4923 0.7281
vt 0.4923 0.8828
vt 0.4829 0.8828
vt 0.7062 0.8277
vt 0.7062 0.7790
vt 0.7156 0.7790
vt 0.7156 0.8277
vt 0.6341 0.0008
vt 0.6827 0.0008
vt 0.6827 0.3007
vt 0.6341 0.3007
vt 0.6321 0.2141
vt 0.6406 0.1509
vt 0.6290 0.1188
vt 0.7376 0.7790
vt 0.7376 0.8277
vt 0.7282 0.8277
vt 0.7282 0.7790
vt 0.6386 0.3173
vt 0.6873 0.3173
vt 0.6873 0.6172
vt 0.6386 0.6172
vt 0.6336 0.4992
vt 0.6451 0.4671
vt 0.6366 0.4039
vt 0.9644 0.0008
vt 0.9644 0.3007
vt 0.9549 0.3007
vt 0.9549 0.0008
vt 0.3598 0.7687
vt 0.3598 0.6501
vt 0.3692 0.6501
vt 0.3693 0.7687
vt 0.0284 0.8309
vt 0.0332 0.8309
vt 0.0332 0.8795
vt 0.0284 0.8795
vt 0.8396 0.3173
vt 0.8396 0.6172
vt 0.7909 0.6172
vt 0.7909 0.3173
vt 0.7266 0.8779
vt 0.7218 0.8779
vt 0.7218 0.8293
vt 0.7266 0.8293
vt 0.7893 0.3173
vt 0.7893 0.6172
vt 0.7407 0.6172
vt 0.7407 0.3173
vt 0.9945 0.3173
vt 0.9992 0.3173
vt 0.9992 0.6172
vt 0.9945 0.6172
vt 0.9990 0.9478
vt 0.9943 0.9478
vt 0.9943 0.6479
vt 0.9990 0.6479
vt 0.5487 0.8092
vt 0.5487 0.8577
vt 0.5392 0.8577
vt 0.5392 0.8092
vt 0.7361 0.0008
vt 0.7848 0.0008
vt 0.7848 0.3007
vt 0.7361 0.3007
vt 0.0158 0.8055
vt 0.0158 0.8541
vt 0.0064 0.8541
vt 0.0064 0.8055
vt 0.7864 0.0008
vt 0.8350 0.0008
vt 0.8350 0.3007
vt 0.7864 0.3007
vt 0.9817 0.6479
vt 0.9817 0.9476
vt 0.9723 0.9475
vt 0.9723 0.6479
vt 0.9864 0.0008
vt 0.9864 0.3003
vt 0.9770 0.3003
vt 0.9770 0.0008
vt 0.5989 0.7557
vt 0.6083 0.7557
vt 0.6083 0.8137
vt 0.5989 0.8137
vt 0.1185 0.3173
vt 0.1185 0.6172
vt 0.0604 0.6172
vt 0.0604 0.3173
vt 0.5973 0.8137
vt 0.5879 0.8137
vt 0.5879 0.7557
vt 0.5973 0.7557
vt 0.0008 0.6172
vt 0.0008 0.3173
vt 0.0588 0.3173
vt 0.0588 0.6172
vt 0.9725 0.3173
vt 0.9819 0.3173
vt 0.9819 0.6169
vt 0.9725 0.6169
vt 0.9754 0.3004
vt 0.9659 0.3004
vt 0.9659 0.0008
vt 0.9754 0.0008
vt 0.6967 0.8293
vt 0.6967 0.8779
vt 0.6889 0.8779
vt 0.6889 0.8293
vt 0.6889 0.4679
vt 0.7309 0.4680
vt 0.7391 0.6184
vt 0.6904 0.6184
vt 0.7156 0.8293
vt 0.7156 0.8779
vt 0.7078 0.8779
vt 0.7078 0.8293
vt 0.6843 0.1513
vt 0.7264 0.1512
vt 0.7345 0.3018
vt 0.6859 0.3018
vt 0.9589 0.8014
vt 0.9596 0.9519
vt 0.9518 0.9519
vt 0.9527 0.8014
vt 0.9887 0.1513
vt 0.9880 0.0008
vt 0.9958 0.0008
vt 0.9950 0.1513
vt 0.5640 0.7834
vt 0.5640 0.8320
vt 0.5546 0.8320
vt 0.5546 0.7834
vt 0.8853 0.2844
vt 0.8366 0.2844
vt 0.8366 0.0008
vt 0.8853 0.0008
vt 0.7172 0.8277
vt 0.7172 0.7790
vt 0.7266 0.7790
vt 0.7266 0.8277
vt 0.5343 0.3457
vt 0.5829 0.3457
vt 0.5829 0.6292
vt 0.5343 0.6292
vt 0.9833 0.9315
vt 0.9833 0.6479
vt 0.9927 0.6479
vt 0.9927 0.9315
vt 0.9835 0.6009
vt 0.9835 0.3173
vt 0.9929 0.3173
vt 0.9929 0.6009
vt 0.6193 0.8320
vt 0.6099 0.8320
vt 0.6099 0.7834
vt 0.6193 0.7834
vt 0.1766 0.6484
vt 0.1822 0.5379
vt 0.1735 0.5033
vt 0.1766 0.3173
vt 0.2253 0.3173
vt 0.2253 0.6484
vt 0.0269 0.8541
vt 0.0174 0.8541
vt 0.0174 0.8055
vt 0.0269 0.8055
vt 0.1232 0.6485
vt 0.1201 0.4624
vt 0.1288 0.4279
vt 0.1232 0.3173
vt 0.1719 0.3173
vt 0.1719 0.6485
vt 0.2408 0.6375
vt 0.2502 0.6375
vt 0.2502 0.9683
vt 0.2408 0.9683
vt 0.9598 0.4282
vt 0.9503 0.4282
vt 0.9504 0.3173
vt 0.9598 0.3173
vt 0.0400 0.8265
vt 0.0400 0.7779
vt 0.0494 0.7779
vt 0.0494 0.8265
vt 0.4829 0.3173
vt 0.5315 0.3173
vt 0.5315 0.6485
vt 0.4829 0.6485
vt 0.4930 0.4829
vt 0.6889 0.8277
vt 0.6889 0.7790
vt 0.6983 0.7790
vt 0.6983 0.8277
vt 0.6320 0.6484
vt 0.5833 0.6484
vt 0.5833 0.3173
vt 0.6320 0.3173
vt 0.6219 0.4828
vt 0.3195 0.6373
vt 0.3195 0.9684
vt 0.3101 0.9684
vt 0.3101 0.6373
vt 0.3211 0.8030
vt 0.3211 0.6373
vt 0.3305 0.6373
vt 0.3305 0.8030
vt 0.5973 0.8637
vt 0.5879 0.8637
vt 0.5879 0.8153
vt 0.5973 0.8153
vt 0.4813 0.3173
vt 0.4813 0.6484
vt 0.4326 0.6484
vt 0.4326 0.3173
vt 0.5369 0.8584
vt 0.5275 0.8584
vt 0.5275 0.8099
vt 0.5369 0.8099
vt 0.3808 0.3173
vt 0.3808 0.6485
vt 0.3321 0.6485
vt 0.3321 0.3173
vt 0.2392 0.9668
vt 0.2298 0.9668
vt 0.2298 0.6375
vt 0.2392 0.6375
vt 0.9614 0.3173
vt 0.9709 0.3173
vt 0.9709 0.6463
vt 0.9614 0.6463
vt 0.5595 0.8336
vt 0.5595 0.8727
vt 0.5546 0.8727
vt 0.5546 0.8336
vt 0.8412 0.3180
vt 0.8803 0.3173
vt 0.8803 0.6484
vt 0.8412 0.6491
vt 0.6145 0.8727
vt 0.6145 0.8336
vt 0.6193 0.8336
vt 0.6193 0.8727
vt 0.9211 0.6490
vt 0.8819 0.6483
vt 0.8819 0.3173
vt 0.9211 0.3180
vt 0.6685 0.9497
vt 0.6685 0.6188
vt 0.6733 0.6188
vt 0.6733 0.9497
vt 0.0511 0.9497
vt 0.0511 0.6188
vt 0.0559 0.6188
vt 0.0559 0.9497
vt 0.6360 0.8320
vt 0.6266 0.8320
vt 0.6266 0.7834
vt 0.6360 0.7834
vt 0.2819 0.6357
vt 0.2869 0.5722
vt 0.2819 0.5083
vt 0.2848 0.4448
vt 0.2795 0.4280
vt 0.2819 0.3173
vt 0.3057 0.3279
vt 0.3184 0.3179
vt 0.3305 0.3173
vt 0.3305 0.6357
vt 0.0284 0.8164
vt 0.0384 0.8164
vt 0.0384 0.8293
vt 0.0284 0.8293
vt 0.2293 0.6359
vt 0.2269 0.5251
vt 0.2322 0.5083
vt 0.2293 0.4447
vt 0.2343 0.3808
vt 0.2293 0.3173
vt 0.2779 0.3173
vt 0.2779 0.6358
vt 0.2657 0.6353
vt 0.2531 0.6253
vt 0.3808 0.9683
vt 0.3714 0.9683
vt 0.3714 0.6501
vt 0.3808 0.6501
vt 0.1572 0.7133
vt 0.1477 0.7133
vt 0.1478 0.6501
vt 0.1572 0.6501
vt 0.6983 0.8680
vt 0.6983 0.8293
vt 0.7048 0.8293
vt 0.7048 0.8680
vt 0.8869 0.0009
vt 0.9257 0.0008
vt 0.9257 0.3124
vt 0.8869 0.3125
vt 0.7310 0.8680
vt 0.7310 0.8293
vt 0.7376 0.8293
vt 0.7376 0.8680
vt 0.0604 0.6188
vt 0.0992 0.6189
vt 0.0992 0.9304
vt 0.0604 0.9303
vt 0.7893 0.6188
vt 0.7893 0.9299
vt 0.7828 0.9299
vt 0.7828 0.6188
vt 0.8256 0.6188
vt 0.8256 0.9300
vt 0.8191 0.9300
vt 0.8191 0.6188
vt 0.0401 0.8768
vt 0.0401 0.8281
vt 0.0494 0.8281
vt 0.0494 0.8768
vt 0.4310 0.6485
vt 0.3824 0.6485
vt 0.3824 0.3173
vt 0.4310 0.3173
vt 0.6082 0.8153
vt 0.6082 0.8640
vt 0.5989 0.8640
vt 0.5989 0.8153
vt 0.5817 0.6484
vt 0.5331 0.6484
vt 0.5331 0.3173
vt 0.5817 0.3173
vt 0.9614 0.9789
vt 0.9614 0.6479
vt 0.9707 0.6479
vt 0.9707 0.9789
vt 0.1719 0.6501
vt 0.1719 0.9810
vt 0.1626 0.9810
vt 0.1626 0.6501
vt 0.7807 0.6188
vt 0.7807 0.9313
vt 0.7683 0.9313
vt 0.7683 0.6188
vt 0.8272 0.9337
vt 0.8272 0.6188
vt 0.8396 0.6188
vt 0.8396 0.9337
vt 0.6873 0.6188
vt 0.6873 0.9313
vt 0.6749 0.9313
vt 0.6749 0.6188
vt 0.1185 0.6188
vt 0.1185 0.9339
vt 0.1061 0.9339
vt 0.1061 0.6188
vt 0.6274 0.3157
vt 0.3149 0.3157
vt 0.3149 0.0008
vt 0.6274 0.0008
vt 0.0008 0.0008
vt 0.3133 0.0008
vt 0.3133 0.3157
vt 0.0008 0.3157
vt 0.2518 0.6375
vt 0.2779 0.6375
vt 0.2779 0.8938
vt 0.2518 0.8938
vt 0.3321 0.6501
vt 0.3582 0.6501
vt 0.3582 0.9064
vt 0.3321 0.9064
vt 0.1995 0.9063
vt 0.1735 0.9063
vt 0.1735 0.6500
vt 0.1995 0.6500
vt 0.9273 0.0008
vt 0.9534 0.0008
vt 0.9534 0.2570
vt 0.9273 0.2570
vt 0.6336 0.6448
vt 0.6336 0.6188
vt 0.6596 0.6188
vt 0.6596 0.6448
vt 0.6099 0.7557
vt 0.6360 0.7557
vt 0.6360 0.7818
vt 0.6099 0.7818
vt 0.6387 0.7265
vt 0.3824 0.7265
vt 0.3824 0.7004
vt 0.6387 0.7004
vt 0.8965 0.9070
vt 0.8965 0.6507
vt 0.9226 0.6507
vt 0.9226 0.9070
vt 0.3055 0.6373
vt 0.3055 0.8937
vt 0.2795 0.8937
vt 0.2795 0.6373
vt 0.6664 0.7004
vt 0.6664 0.9566
vt 0.6403 0.9566
vt 0.6403 0.7004
vt 0.5530 0.7281
vt 0.5530 0.7541
vt 0.5270 0.7541
vt 0.5270 0.7281
vt 0.5807 0.7557
vt 0.5807 0.7818
vt 0.5546 0.7818
vt 0.5546 0.7557
vt 0.7909 0.8751
vt 0.7909 0.6188
vt 0.8170 0.6188
vt 0.8170 0.8751
vt 0.9502 0.6507
vt 0.9502 0.9069
vt 0.9242 0.9069
vt 0.9242 0.6507
vt 0.2272 0.6500
vt 0.2272 0.9063
vt 0.2011 0.9063
vt 0.2011 0.6500
vt 0.8672 0.6507
vt 0.8672 0.9070
vt 0.8412 0.9070
vt 0.8412 0.6507
vt 0.5823 0.7281
vt 0.6083 0.7281
vt 0.6083 0.7541
vt 0.5823 0.7541
vt 0.0269 0.7779
vt 0.0269 0.8039
vt 0.0008 0.8039
vt 0.0008 0.7779
vt 0.1461 0.9065
vt 0.1201 0.9065
vt 0.1201 0.6501
vt 0.1461 0.6501
vt 0.9227 0.3173
vt 0.9487 0.3173
vt 0.9487 0.5735
vt 0.9227 0.5735
vt 0.7667 0.8752
vt 0.7407 0.8752
vt 0.7407 0.6188
vt 0.7667 0.6188
vt 0.8949 0.9070
vt 0.8688 0.9070
vt 0.8688 0.6507
vt 0.8949 0.6507
vt 0.5807 0.7541
vt 0.5546 0.7541
vt 0.5546 0.7281
vt 0.5807 0.7281
vt 0.6099 0.7281
vt 0.6360 0.7281
vt 0.6360 0.7541
vt 0.6099 0.7541
vt 0.5033 0.8776
vt 0.4939 0.8777
vt 0.4939 0.7281
vt 0.5033 0.7281
vt 0.6889 0.7774
vt 0.6889 0.6224
vt 0.7011 0.6275
vt 0.7132 0.6302
vt 0.7254 0.6200
vt 0.7376 0.6275
vt 0.7376 0.7774
vt 0.3824 0.8381
vt 0.3824 0.7395
vt 0.3945 0.7347
vt 0.4067 0.7281
vt 0.4189 0.7362
vt 0.4310 0.7291
vt 0.4310 0.8381
vt 0.5254 0.8262
vt 0.5159 0.8262
vt 0.5159 0.7281
vt 0.5254 0.7281
vt 0.5487 0.7950
vt 0.5487 0.8076
vt 0.5385 0.8076
vt 0.5385 0.7950
vt 0.5270 0.7693
vt 0.5270 0.7557
vt 0.5369 0.7557
vt 0.5369 0.7693
vt 0.5270 0.8084
vt 0.5270 0.7943
vt 0.5369 0.7943
vt 0.5369 0.8084
vt 0.5270 0.7832
vt 0.5369 0.7832
vt 0.5487 0.7557
vt 0.5487 0.7684
vt 0.5385 0.7684
vt 0.5385 0.7557
vt 0.5487 0.7813
vt 0.5385 0.7813
vt 0.0284 0.7779
vt 0.0384 0.7779
vt 0.0384 0.8028
vt 0.0284 0.8028
vt 0.1572 0.9688
vt 0.1478 0.9688
vt 0.1478 0.8582
vt 0.1572 0.8582
vt 0.1477 0.8410
vt 0.1572 0.8410
vt 0.1478 0.7776
vt 0.1572 0.7776
vt 0.9598 0.6488
vt 0.9503 0.6488
vt 0.9504 0.4624
vt 0.9598 0.4624
vt 0.3598 0.9514
vt 0.3598 0.8644
vt 0.3693 0.8644
vt 0.3693 0.9514
vt 0.3598 0.8008
vt 0.3692 0.8008
vt 0.9880 0.3018
vt 0.9958 0.3018
vt 0.9596 0.6507
vt 0.9518 0.6507
vt 0.6859 0.0008
vt 0.7345 0.0008
vt 0.6904 0.3173
vt 0.7391 0.3173
vt 0.3211 0.9687
vt 0.3305 0.9687
vn 0.0000 0.0943 0.9955
vn -0.9999 -0.0143 0.0003
vn -0.0022 0.1264 -0.9920
vn 1.0000 0.0000 0.0000
vn 0.0141 -0.9919 -0.1264
vn 0.0000 0.9955 -0.0943
vn 0.0000 0.0161 0.9999
vn 0.0000 -0.0161 -0.9999
vn -1.0000 0.0000 -0.0000
vn 0.0000 -0.9999 0.0161
vn 0.0000 0.9996 0.0267
vn 0.0000 0.0000 1.0000
vn 0.0000 0.0000 -1.0000
vn 0.0000 -1.0000 0.0000
vn 0.0000 1.0000 0.0000
vn 0.0000 -0.0620 0.9981
vn 0.0000 0.0620 -0.9981
vn 0.0000 -0.9981 -0.0620
vn 0.0000 0.9981 0.0620
vn 0.0000 0.0616 0.9981
vn 0.0000 -0.0616 -0.9981
vn 0.0000 -0.9981 0.0616
vn 0.0000 0.9981 -0.0616
vn 0.0000 -0.0178 0.9998
vn 1.0000 -0.0001 0.0051
vn 0.0000 0.0178 -0.9998
vn -1.0000 0.0001 -0.0051
vn -0.0000 -0.9993 0.0368
vn 0.0000 0.9996 0.0274
vn -0.9990 -0.0443 0.0000
vn 0.9990 0.0443 0.0000
vn 0.0443 -0.9990 0.0000
vn 0.0061 1.0000 -0.0000
vn 0.0610 0.9981 0.0000
vn -0.9885 0.1513 0.0000
vn 0.9885 -0.1513 0.0000
vn -0.1513 -0.9885 0.0000
vn 0.1513 0.9885 0.0000
vn -0.9988 0.0487 0.0000
vn 0.9988 -0.0487 0.0000
vn -0.0315 -0.9995 0.0000
vn 0.0315 0.9995 0.0000
vn -0.9984 0.0570 0.0000
vn 0.9999 -0.0105 0.0000
vn -0.0562 -0.9984 0.0000
vn 0.1347 0.9909 0.0000
vn -0.9985 -0.0556 0.0000
vn 0.9985 0.0556 0.0000
vn 0.0586 -0.9983 0.0000
vn -0.0586 0.9983 0.0000
vn -0.9991 0.0435 0.0000
vn 0.9991 -0.0435 0.0000
vn -0.0435 -0.9991 0.0000
vn 0.0435 0.9991 0.0000
vn 0.0000 -0.9955 0.0943
vn 0.9999 0.0143 -0.0003
vn -0.0141 0.9919 0.1264
vn 0.0000 -0.6028 -0.7979
vn -0.0032 0.2486 0.9686
vn -0.0053 0.3959 0.9183
vn 0.0097 -0.6581 0.7528
vn -0.0049 0.3623 0.9321
vn 0.0000 -0.4716 -0.8818
vn 0.0000 -0.3053 -0.9523
vn 0.0000 0.5662 -0.8243
vn 0.8900 -0.4560 0.0000
vn 0.8185 0.5745 0.0000
vn 0.0778 0.9970 -0.0000
vn -0.2488 0.9685 -0.0000
vn 0.1024 0.9947 0.0000
vn -0.0221 0.9998 0.0000
vn -0.0274 0.9996 -0.0000
vn -0.2878 0.9577 -0.0000
vn -0.0000 0.9992 -0.0392
vn 0.0000 0.9931 0.1173
vn -0.0000 0.9353 -0.3538
vn 0.0000 1.0000 0.0071
vn 0.0000 -0.9975 -0.0712
vn -1.0000 -0.0001 0.0051
vn 1.0000 0.0001 -0.0051
vn -0.0610 0.9981 0.0000
usemtl Crate03
s off
f 2/1/1 4/2/1 3/3/1 1/4/1
f 157/5/2 8/6/2 7/7/2 159/8/2 166/9/2 165/10/2 164/11/2
f 8/12/3 6/13/3 5/14/3 7/15/3
f 155/16/4 2/17/4 1/18/4 156/19/4 169/20/4 168/21/4 167/22/4
f 158/23/5 159/24/5 7/25/5 5/26/5
f 155/27/6 153/28/6 4/29/6 2/30/6
f 10/31/7 9/32/7 11/33/7 12/34/7
f 12/35/4 11/36/4 15/37/4 16/38/4 191/39/4 190/40/4 189/41/4
f 16/42/8 15/43/8 13/44/8 14/45/8
f 14/46/9 13/47/9 9/48/9 10/49/9 194/50/9 193/51/9 192/52/9
f 9/53/10 13/54/10 15/55/10 11/56/10
f 194/57/11 10/58/11 12/59/11 189/60/11
f 18/61/12 20/62/12 19/63/12 17/64/12
f 20/65/9 24/66/9 23/67/9 19/68/9
f 24/69/13 22/70/13 21/71/13 23/72/13
f 22/73/4 18/74/4 17/75/4 21/76/4
f 17/77/14 19/78/14 23/79/14 21/80/14
f 22/81/15 24/82/15 20/83/15 18/84/15
f 26/85/16 25/86/16 27/87/16 28/88/16
f 28/89/4 27/90/4 31/91/4 32/92/4
f 32/93/17 31/94/17 29/95/17 30/96/17
f 30/97/9 29/98/9 25/99/9 26/100/9
f 25/101/18 29/102/18 31/103/18 27/104/18
f 30/105/19 26/106/19 28/107/19 32/108/19
f 34/109/20 36/110/20 35/111/20 33/112/20
f 36/113/9 40/114/9 39/115/9 35/116/9
f 40/117/21 38/118/21 37/119/21 39/120/21
f 38/121/4 34/122/4 33/123/4 37/124/4
f 33/125/22 35/126/22 39/127/22 37/128/22
f 38/129/23 40/130/23 36/131/23 34/132/23
f 42/133/24 41/134/24 43/135/24 44/136/24
f 195/137/25 196/138/25 47/139/25 48/140/25
f 48/141/26 47/142/26 45/143/26 46/144/26
f 197/145/27 198/146/27 41/147/27 42/148/27
f 198/149/28 45/150/28 47/151/28 196/152/28
f 197/153/29 42/154/29 44/155/29 195/156/29
f 50/157/12 49/158/12 51/159/12 52/160/12
f 52/161/4 51/162/4 55/163/4 56/164/4
f 56/165/13 55/166/13 53/167/13 54/168/13
f 54/169/9 53/170/9 49/171/9 50/172/9
f 49/173/14 53/174/14 55/175/14 51/176/14
f 54/177/15 50/178/15 52/179/15 56/180/15
f 58/181/30 60/182/30 59/183/30 57/184/30
f 60/185/13 185/186/13 186/187/13 64/188/13 63/189/13 59/190/13
f 64/191/31 62/192/31 61/193/31 63/194/31
f 62/195/12 187/196/12 188/197/12 58/198/12 57/199/12 61/200/12
f 57/201/32 59/202/32 63/203/32 61/204/32
f 188/205/33 185/206/33 60/207/33 58/208/33
f 66/209/9 65/210/9 67/211/9 68/212/9
f 68/213/12 67/214/12 71/215/12 72/216/12 199/217/12
f 72/218/4 71/219/4 69/220/4 70/221/4
f 70/222/13 69/223/13 65/224/13 66/225/13 200/226/13
f 65/227/14 69/228/14 71/229/14 67/230/14
f 200/231/34 66/232/34 68/233/34 199/234/34
f 74/235/35 76/236/35 75/237/35 73/238/35
f 76/239/13 80/240/13 79/241/13 75/242/13
f 80/243/36 78/244/36 77/245/36 79/246/36
f 78/247/12 74/248/12 73/249/12 77/250/12
f 73/251/37 75/252/37 79/253/37 77/254/37
f 78/255/38 80/256/38 76/257/38 74/258/38
f 82/259/39 81/260/39 83/261/39 84/262/39
f 84/263/12 83/264/12 87/265/12 88/266/12
f 88/267/40 87/268/40 85/269/40 86/270/40
f 86/271/13 85/272/13 81/273/13 82/274/13
f 81/275/41 85/276/41 87/277/41 83/278/41
f 86/279/42 82/280/42 84/281/42 88/282/42
f 90/283/43 92/284/43 91/285/43 89/286/43
f 92/287/13 177/288/13 178/289/13 179/290/13 180/291/13 96/292/13 173/293/13 175/294/13 95/295/13 91/296/13
f 175/297/44 176/298/44 93/299/44 95/300/44
f 94/301/12 181/302/12 182/303/12 183/304/12 184/305/12 90/306/12 89/307/12 93/308/12 176/309/12 174/310/12
f 89/311/45 91/312/45 95/313/45 93/314/45
f 184/315/46 177/316/46 92/317/46 90/318/46
f 98/319/47 97/320/47 99/321/47 100/322/47
f 100/323/12 99/324/12 103/325/12 104/326/12
f 104/327/48 103/328/48 101/329/48 102/330/48
f 102/331/13 101/332/13 97/333/13 98/334/13
f 97/335/49 101/336/49 103/337/49 99/338/49
f 102/339/50 98/340/50 100/341/50 104/342/50
f 106/343/51 105/344/51 107/345/51 108/346/51
f 108/347/12 107/348/12 111/349/12 112/350/12
f 112/351/52 111/352/52 109/353/52 110/354/52
f 110/355/13 109/356/13 105/357/13 106/358/13
f 105/359/53 109/360/53 111/361/53 107/362/53
f 110/363/54 106/364/54 108/365/54 112/366/54
f 126/367/9 113/368/9 144/369/9 125/370/9
f 113/371/13 115/372/13 124/373/13 144/374/13
f 115/375/4 114/376/4 135/377/4 124/378/4
f 114/379/12 126/380/12 125/381/12 135/382/12
f 125/383/14 144/384/14 124/385/14 135/386/14
f 114/387/15 115/388/15 113/389/15 126/390/15
f 117/391/9 119/392/9 118/393/9 116/394/9
f 119/395/13 123/396/13 122/397/13 118/398/13
f 123/399/4 121/400/4 120/401/4 122/402/4
f 121/403/12 117/404/12 116/405/12 120/406/12
f 116/407/14 118/408/14 122/409/14 120/410/14
f 121/411/15 123/412/15 119/413/15 117/414/15
f 128/415/4 127/416/4 129/417/4 130/418/4
f 130/419/13 129/420/13 133/421/13 134/422/13
f 134/423/9 133/424/9 131/425/9 132/426/9
f 132/427/12 131/428/12 127/429/12 128/430/12
f 127/431/14 131/432/14 133/433/14 129/434/14
f 132/435/15 128/436/15 130/437/15 134/438/15
f 137/439/9 136/440/9 138/441/9 139/442/9
f 139/443/12 138/444/12 142/445/12 143/446/12
f 143/447/4 142/448/4 140/449/4 141/450/4
f 141/451/13 140/452/13 136/453/13 137/454/13
f 136/455/14 140/456/14 142/457/14 138/458/14
f 141/459/15 137/460/15 139/461/15 143/462/15
f 146/463/4 148/464/4 147/465/4 145/466/4
f 148/467/12 152/468/12 151/469/12 147/470/12
f 152/471/9 150/472/9 149/473/9 151/474/9
f 150/475/13 146/476/13 145/477/13 149/478/13
f 145/479/14 147/480/14 151/481/14 149/482/14
f 150/483/15 152/484/15 148/485/15 146/486/15
f 1/487/55 3/488/55 154/489/55 156/490/55
f 4/491/9 153/492/9 170/493/9 171/494/9 172/495/9 154/496/9 3/497/9
f 6/498/56 160/499/56 161/500/56 162/501/56 163/502/56 158/503/56 5/504/56
f 6/505/57 8/506/57 157/507/57 160/508/57
f 169/509/58 156/510/58 154/511/58 172/512/58
f 161/513/59 160/514/59 157/515/59 164/516/59
f 158/517/60 163/518/60 166/519/60 159/520/60
f 163/518/61 162/521/61 165/522/61 166/519/61
f 162/521/62 161/513/62 164/516/62 165/522/62
f 155/523/63 167/524/63 170/525/63 153/526/63
f 167/524/64 168/527/64 171/528/64 170/525/64
f 168/527/65 169/509/65 172/512/65 171/528/65
f 96/529/66 94/530/66 174/531/66 173/532/66
f 173/532/67 174/531/67 176/298/67 175/297/67
f 94/533/68 96/534/68 180/535/68 181/536/68
f 181/536/69 180/535/69 179/537/69 182/538/69
f 182/538/70 179/537/70 178/539/70 183/540/70
f 183/540/71 178/539/71 177/316/71 184/315/71
f 62/541/72 64/542/72 186/543/72 187/544/72
f 187/544/73 186/543/73 185/206/73 188/205/73
f 14/545/74 192/546/74 191/547/74 16/548/74
f 192/546/75 193/549/75 190/550/75 191/547/75
f 193/549/76 194/57/76 189/60/76 190/550/76
f 46/551/77 197/153/77 195/156/77 48/552/77
f 41/553/78 198/149/78 196/152/78 43/554/78
f 46/555/79 45/556/79 198/146/79 197/145/79
f 44/557/80 43/558/80 196/138/80 195/137/80
f 70/559/81 200/231/81 199/234/81 72/560/81
