# Blender v2.77 (sub 0) OBJ File: 'WoodenPallet.blend'
# www.blender.org
mtllib WoodenPallet.mtl
o WoodenPallet_Cube.005
v -0.618800 0.133517 0.351651
v -0.618800 0.156759 0.351651
v -0.618800 0.133517 0.193545
v -0.618800 0.156759 0.193545
v 0.618578 0.133517 0.351651
v 0.618578 0.156759 0.351651
v 0.618578 0.133517 0.193545
v 0.618578 0.156759 0.193545
v -0.618800 0.133517 -0.351651
v -0.618800 0.156759 -0.351651
v -0.618800 0.133517 -0.193545
v -0.618800 0.156759 -0.193545
v 0.618578 0.133517 -0.351651
v 0.618578 0.156759 -0.351651
v 0.618578 0.133517 -0.193545
v 0.618578 0.156759 -0.193545
v -0.618800 0.000756 0.078782
v -0.618800 0.023998 0.078782
v -0.618800 0.000756 -0.079323
v -0.618800 0.023998 -0.079323
v 0.618578 0.000756 0.078782
v 0.618578 0.023998 0.078782
v 0.618578 0.000756 -0.079323
v 0.618578 0.023998 -0.079323
v -0.618800 0.133517 0.078782
v -0.618800 0.156759 0.078782
v -0.618800 0.133517 -0.079323
v -0.618800 0.156759 -0.079323
v 0.618578 0.133517 0.078782
v 0.618578 0.156759 0.078782
v 0.618578 0.133517 -0.079323
v 0.618578 0.156759 -0.079323
v -0.616232 0.023998 0.074994
v -0.616232 0.119802 0.074994
v -0.616232 0.023998 -0.074994
v -0.616232 0.119802 -0.074994
v -0.466244 0.023998 0.074994
v -0.466244 0.119802 0.074994
v -0.466244 0.023998 -0.074994
v -0.466244 0.119802 -0.074994
v 0.616232 0.023998 0.074994
v 0.616232 0.119802 0.074994
v 0.616232 0.023998 -0.074994
v 0.616232 0.119802 -0.074994
v 0.466244 0.023998 0.074994
v 0.466244 0.119802 0.074994
v 0.466244 0.023998 -0.074994
v 0.466244 0.119802 -0.074994
v -0.616232 0.023998 0.613791
v -0.616232 0.119802 0.613791
v -0.616232 0.023998 0.463803
v -0.616232 0.119802 0.463803
v -0.466244 0.023998 0.613791
v -0.466244 0.119802 0.613791
v -0.466244 0.023998 0.463803
v -0.466244 0.119802 0.463803
v 0.616232 0.023998 0.613791
v 0.616232 0.119802 0.613791
v 0.616232 0.023998 0.463803
v 0.616232 0.119802 0.463803
v 0.466244 0.023998 0.613791
v 0.466244 0.119802 0.613791
v 0.466244 0.023998 0.463803
v 0.466244 0.119802 0.463803
v -0.616232 0.023998 -0.613791
v -0.616232 0.119802 -0.613791
v -0.616232 0.023998 -0.463803
v -0.616232 0.119802 -0.463803
v -0.466244 0.023998 -0.613791
v -0.466244 0.119802 -0.613791
v -0.466244 0.023998 -0.463803
v -0.466244 0.119802 -0.463803
v 0.616232 0.023998 -0.613791
v 0.616232 0.119802 -0.613791
v 0.616232 0.023998 -0.463803
v 0.616232 0.119802 -0.463803
v 0.466244 0.023998 -0.613791
v 0.466244 0.119802 -0.613791
v 0.466244 0.023998 -0.463803
v 0.466244 0.119802 -0.463803
v -0.618800 0.000756 0.618091
v -0.618800 0.023998 0.618091
v -0.618800 0.000756 0.459986
v -0.618800 0.023998 0.459986
v 0.618578 0.000756 0.618091
v 0.618578 0.023998 0.618091
v 0.618578 0.000756 0.459986
v 0.618578 0.023998 0.459986
v -0.618800 0.133517 0.618091
v -0.618800 0.156759 0.618091
v -0.618800 0.133517 0.459986
v -0.618800 0.156759 0.459986
v 0.618578 0.133517 0.618091
v 0.618578 0.156759 0.618091
v 0.618578 0.133517 0.459986
v 0.618578 0.156759 0.459986
v -0.618800 0.000756 -0.618091
v -0.618800 0.023998 -0.618091
v -0.618800 0.000756 -0.459986
v -0.618800 0.023998 -0.459986
v 0.618578 0.000756 -0.618091
v 0.618578 0.023998 -0.618091
v 0.618578 0.000756 -0.459986
v 0.618578 0.023998 -0.459986
v -0.618800 0.133517 -0.618091
v -0.618800 0.156759 -0.618091
v -0.618800 0.133517 -0.459986
v -0.618800 0.156759 -0.459986
v 0.618578 0.133517 -0.618091
v 0.618578 0.156759 -0.618091
v 0.618578 0.133517 -0.459986
v 0.618578 0.156759 -0.459986
v 0.078761 0.024573 0.636633
v 0.078761 0.133517 0.636633
v -0.079344 0.024573 0.636633
v -0.079344 0.133517 0.636633
v 0.078761 0.024573 -0.636814
v 0.078761 0.133517 -0.636814
v -0.079344 0.024573 -0.636814
v -0.079344 0.133517 -0.636814
v 0.621292 0.119802 0.636633
v 0.621292 0.133517 0.636633
v 0.463186 0.119802 0.636633
v 0.463186 0.133517 0.636633
v 0.621292 0.119802 -0.636814
v 0.621292 0.133517 -0.636814
v 0.463186 0.119802 -0.636814
v 0.463186 0.133517 -0.636814
v -0.620132 0.119802 0.636633
v -0.620132 0.133517 0.636633
v -0.462026 0.119802 0.636633
v -0.462026 0.133517 0.636633
v -0.620132 0.119802 -0.636814
v -0.620132 0.133517 -0.636814
v -0.462026 0.119802 -0.636814
v -0.462026 0.133517 -0.636814
vt 0.1298 0.8585
vt 0.1298 0.7966
vt 0.1419 0.7966
vt 0.1419 0.8585
vt 0.9477 0.4859
vt 0.9477 0.0017
vt 0.9598 0.0017
vt 0.9598 0.4859
vt 0.3430 0.8553
vt 0.3430 0.7934
vt 0.3551 0.7934
vt 0.3551 0.8553
vt 0.0259 0.5000
vt 0.0259 0.9841
vt 0.0138 0.9841
vt 0.0138 0.5000
vt 0.4375 0.9700
vt 0.3753 0.9700
vt 0.3753 0.4859
vt 0.4375 0.4859
vt 0.7488 0.4859
vt 0.6866 0.4859
vt 0.6866 0.0017
vt 0.7488 0.0017
vt 0.1177 0.7966
vt 0.1298 0.7966
vt 0.1298 0.8585
vt 0.1177 0.8585
vt 0.0622 0.5000
vt 0.0743 0.5000
vt 0.0743 0.9841
vt 0.0622 0.9841
vt 0.3551 0.7934
vt 0.3672 0.7934
vt 0.3672 0.8553
vt 0.3551 0.8553
vt 0.9356 0.0017
vt 0.9477 0.0017
vt 0.9477 0.4859
vt 0.9356 0.4859
vt 0.6243 0.0017
vt 0.6243 0.4859
vt 0.5621 0.4859
vt 0.5621 0.0017
vt 0.8733 0.4859
vt 0.8733 0.0017
vt 0.2689 0.8553
vt 0.2689 0.7934
vt 0.2810 0.7934
vt 0.2810 0.8553
vt 0.9598 0.4859
vt 0.9598 0.0017
vt 0.9719 0.0017
vt 0.9719 0.4859
vt 0.2175 0.7411
vt 0.2175 0.8030
vt 0.2054 0.8030
vt 0.2054 0.7411
vt 0.0864 0.9841
vt 0.0864 0.5000
vt 0.0985 0.5000
vt 0.0985 0.9841
vt 0.8111 0.4859
vt 0.7488 0.4859
vt 0.7488 0.0017
vt 0.8111 0.0017
vt 0.6866 0.4859
vt 0.7488 0.4859
vt 0.7488 0.9700
vt 0.6866 0.9700
vt 0.1661 0.8585
vt 0.1661 0.7966
vt 0.1782 0.7966
vt 0.1782 0.8585
vt 0.9719 0.9700
vt 0.9719 0.4859
vt 0.9840 0.4859
vt 0.9840 0.9700
vt 0.1057 0.8585
vt 0.1057 0.7966
vt 0.1177 0.7966
vt 0.1177 0.8585
vt 0.0138 0.5000
vt 0.0138 0.9841
vt 0.0017 0.9841
vt 0.0017 0.5000
vt 0.8733 0.4859
vt 0.8111 0.4859
vt 0.8111 0.0017
vt 0.8733 0.0017
vt 0.7488 0.4859
vt 0.8111 0.4859
vt 0.8111 0.9700
vt 0.7488 0.9700
vt 0.1555 0.7379
vt 0.1555 0.6792
vt 0.2054 0.6792
vt 0.2054 0.7379
vt 0.3188 0.6761
vt 0.3188 0.6174
vt 0.3686 0.6174
vt 0.3686 0.6761
vt 0.2689 0.7934
vt 0.2689 0.8521
vt 0.2190 0.8521
vt 0.2190 0.7934
vt 0.2122 0.6205
vt 0.2122 0.6792
vt 0.1624 0.6792
vt 0.1624 0.6205
vt 0.3188 0.6761
vt 0.3686 0.6761
vt 0.3686 0.7347
vt 0.3188 0.7347
vt 0.2122 0.6205
vt 0.1624 0.6205
vt 0.1624 0.5619
vt 0.2122 0.5619
vt 0.3188 0.7347
vt 0.3686 0.7347
vt 0.3686 0.7934
vt 0.3188 0.7934
vt 0.1555 0.6792
vt 0.1057 0.6792
vt 0.1057 0.6205
vt 0.1555 0.6205
vt 0.2190 0.7934
vt 0.2190 0.7347
vt 0.2689 0.7347
vt 0.2689 0.7934
vt 0.3188 0.5587
vt 0.3188 0.6174
vt 0.2689 0.6174
vt 0.2689 0.5587
vt 0.1057 0.7966
vt 0.1057 0.7379
vt 0.1555 0.7379
vt 0.1555 0.7966
vt 0.1555 0.5619
vt 0.1555 0.6205
vt 0.1057 0.6205
vt 0.1057 0.5619
vt 0.2190 0.6761
vt 0.2689 0.6761
vt 0.2689 0.7347
vt 0.2190 0.7347
vt 0.3188 0.5000
vt 0.3686 0.5000
vt 0.3686 0.5587
vt 0.3188 0.5587
vt 0.1555 0.7379
vt 0.2054 0.7379
vt 0.2054 0.7966
vt 0.1555 0.7966
vt 0.2689 0.6761
vt 0.2190 0.6761
vt 0.2190 0.6174
vt 0.2689 0.6174
vt 0.2689 0.7347
vt 0.3188 0.7347
vt 0.3188 0.7934
vt 0.2689 0.7934
vt 0.2689 0.6174
vt 0.2190 0.6174
vt 0.2190 0.5587
vt 0.2689 0.5587
vt 0.2689 0.6761
vt 0.3188 0.6761
vt 0.3188 0.7347
vt 0.2689 0.7347
vt 0.2689 0.5000
vt 0.3188 0.5000
vt 0.3188 0.5587
vt 0.2689 0.5587
vt 0.3188 0.6174
vt 0.3188 0.5587
vt 0.3686 0.5587
vt 0.3686 0.6174
vt 0.3188 0.6174
vt 0.3188 0.6761
vt 0.2689 0.6761
vt 0.2689 0.6174
vt 0.1057 0.7379
vt 0.1057 0.6792
vt 0.1555 0.6792
vt 0.1555 0.7379
vt 0.2190 0.5587
vt 0.2190 0.5000
vt 0.2689 0.5000
vt 0.2689 0.5587
vt 0.2810 0.8553
vt 0.2810 0.7934
vt 0.2931 0.7934
vt 0.2931 0.8553
vt 0.9598 0.9700
vt 0.9598 0.4859
vt 0.9719 0.4859
vt 0.9719 0.9700
vt 0.3188 0.8553
vt 0.3188 0.7934
vt 0.3309 0.7934
vt 0.3309 0.8553
vt 0.0743 0.9841
vt 0.0743 0.5000
vt 0.0864 0.5000
vt 0.0864 0.9841
vt 0.6866 0.4859
vt 0.6243 0.4859
vt 0.6243 0.0017
vt 0.6866 0.0017
vt 0.6243 0.4859
vt 0.6866 0.4859
vt 0.6866 0.9700
vt 0.6243 0.9700
vt 0.1540 0.8585
vt 0.1540 0.7966
vt 0.1661 0.7966
vt 0.1661 0.8585
vt 0.9719 0.4859
vt 0.9719 0.0017
vt 0.9840 0.0017
vt 0.9840 0.4859
vt 0.3052 0.8553
vt 0.3052 0.7934
vt 0.3173 0.7934
vt 0.3173 0.8553
vt 0.0501 0.5000
vt 0.0501 0.9841
vt 0.0380 0.9841
vt 0.0380 0.5000
vt 0.4998 0.4859
vt 0.4375 0.4859
vt 0.4375 0.0017
vt 0.4998 0.0017
vt 0.5621 0.4859
vt 0.6243 0.4859
vt 0.6243 0.9700
vt 0.5621 0.9700
vt 0.2931 0.7934
vt 0.3052 0.7934
vt 0.3052 0.8553
vt 0.2931 0.8553
vt 0.9477 0.9700
vt 0.9356 0.9700
vt 0.9356 0.4859
vt 0.9477 0.4859
vt 0.2054 0.6792
vt 0.2175 0.6792
vt 0.2175 0.7411
vt 0.2054 0.7411
vt 0.9477 0.4859
vt 0.9598 0.4859
vt 0.9598 0.9700
vt 0.9477 0.9700
vt 0.4375 0.9700
vt 0.4375 0.4859
vt 0.4998 0.4859
vt 0.4998 0.9700
vt 0.4375 0.0017
vt 0.4375 0.4859
vt 0.3753 0.4859
vt 0.3753 0.0017
vt 0.1419 0.7966
vt 0.1540 0.7966
vt 0.1540 0.8585
vt 0.1419 0.8585
vt 0.0622 0.9841
vt 0.0501 0.9841
vt 0.0501 0.5000
vt 0.0622 0.5000
vt 0.3309 0.7934
vt 0.3430 0.7934
vt 0.3430 0.8553
vt 0.3309 0.8553
vt 0.0259 0.5000
vt 0.0380 0.5000
vt 0.0380 0.9841
vt 0.0259 0.9841
vt 0.4998 0.9700
vt 0.4998 0.4859
vt 0.5621 0.4859
vt 0.5621 0.9700
vt 0.5621 0.0017
vt 0.5621 0.4859
vt 0.4998 0.4859
vt 0.4998 0.0017
vt 0.1624 0.5619
vt 0.1624 0.5000
vt 0.2190 0.5000
vt 0.2190 0.5619
vt 0.8111 0.9841
vt 0.8111 0.4859
vt 0.8678 0.4859
vt 0.8678 0.9841
vt 0.1057 0.5619
vt 0.1057 0.5000
vt 0.1624 0.5000
vt 0.1624 0.5619
vt 0.9245 0.4859
vt 0.9245 0.9841
vt 0.8678 0.9841
vt 0.8678 0.4859
vt 0.0640 0.5000
vt 0.0017 0.5000
vt 0.0017 0.0017
vt 0.0640 0.0017
vt 0.1885 0.0017
vt 0.2508 0.0017
vt 0.2508 0.5000
vt 0.1885 0.5000
vt 0.1854 0.8585
vt 0.1854 0.7966
vt 0.1925 0.7966
vt 0.1925 0.8585
vt 0.9245 0.9841
vt 0.9245 0.4859
vt 0.9316 0.4859
vt 0.9316 0.9841
vt 0.1854 0.7966
vt 0.1854 0.8585
vt 0.1782 0.8585
vt 0.1782 0.7966
vt 0.9983 0.0017
vt 0.9983 0.5000
vt 0.9911 0.5000
vt 0.9911 0.0017
vt 0.3753 0.5000
vt 0.3130 0.5000
vt 0.3130 0.0017
vt 0.3753 0.0017
vt 0.3130 0.5000
vt 0.2508 0.5000
vt 0.2508 0.0017
vt 0.3130 0.0017
vt 0.1925 0.7966
vt 0.1996 0.7966
vt 0.1996 0.8585
vt 0.1925 0.8585
vt 0.9911 0.5000
vt 0.9840 0.5000
vt 0.9840 0.0017
vt 0.9911 0.0017
vt 0.3672 0.7934
vt 0.3743 0.7934
vt 0.3743 0.8553
vt 0.3672 0.8553
vt 0.0985 0.5000
vt 0.1057 0.5000
vt 0.1057 0.9983
vt 0.0985 0.9983
vt 0.0640 0.5000
vt 0.0640 0.0017
vt 0.1263 0.0017
vt 0.1263 0.5000
vt 0.1885 0.0017
vt 0.1885 0.5000
vt 0.1263 0.5000
vt 0.1263 0.0017
vn -1.0000 0.0000 0.0000
vn -0.0000 0.0000 -1.0000
vn 1.0000 0.0000 0.0000
vn 0.0000 0.0000 1.0000
vn 0.0000 -1.0000 0.0000
vn 0.0000 1.0000 0.0000
usemtl WoodenPallet
s off
f 2/1/1 4/2/1 3/3/1 1/4/1
f 4/5/2 8/6/2 7/7/2 3/8/2
f 8/9/3 6/10/3 5/11/3 7/12/3
f 6/13/4 2/14/4 1/15/4 5/16/4
f 1/17/5 3/18/5 7/19/5 5/20/5
f 6/21/6 8/22/6 4/23/6 2/24/6
f 10/25/1 9/26/1 11/27/1 12/28/1
f 12/29/4 11/30/4 15/31/4 16/32/4
f 16/33/3 15/34/3 13/35/3 14/36/3
f 14/37/2 13/38/2 9/39/2 10/40/2
f 9/41/5 13/42/5 15/43/5 11/44/5
f 14/37/6 10/40/6 12/45/6 16/46/6
f 18/47/1 20/48/1 19/49/1 17/50/1
f 20/51/2 24/52/2 23/53/2 19/54/2
f 24/55/3 22/56/3 21/57/3 23/58/3
f 22/59/4 18/60/4 17/61/4 21/62/4
f 17/63/5 19/64/5 23/65/5 21/66/5
f 22/67/6 24/68/6 20/69/6 18/70/6
f 26/71/1 28/72/1 27/73/1 25/74/1
f 28/75/2 32/76/2 31/77/2 27/78/2
f 32/79/3 30/80/3 29/81/3 31/82/3
f 30/83/4 26/84/4 25/85/4 29/86/4
f 25/87/5 27/88/5 31/89/5 29/90/5
f 30/91/6 32/92/6 28/93/6 26/94/6
f 34/95/1 36/96/1 35/97/1 33/98/1
f 36/99/2 40/100/2 39/101/2 35/102/2
f 40/103/3 38/104/3 37/105/3 39/106/3
f 38/107/4 34/108/4 33/109/4 37/110/4
f 42/111/3 41/112/3 43/113/3 44/114/3
f 44/115/2 43/116/2 47/117/2 48/118/2
f 48/119/1 47/120/1 45/121/1 46/122/1
f 46/123/4 45/124/4 41/125/4 42/126/4
f 50/127/1 52/128/1 51/129/1 49/130/1
f 52/131/2 56/132/2 55/133/2 51/134/2
f 56/135/3 54/136/3 53/137/3 55/138/3
f 54/139/4 50/140/4 49/141/4 53/142/4
f 58/143/3 57/144/3 59/145/3 60/146/3
f 60/147/2 59/148/2 63/149/2 64/150/2
f 64/151/1 63/152/1 61/153/1 62/154/1
f 62/155/4 61/156/4 57/157/4 58/158/4
f 66/159/1 65/160/1 67/161/1 68/162/1
f 68/163/4 67/164/4 71/165/4 72/166/4
f 72/167/3 71/168/3 69/169/3 70/170/3
f 70/171/2 69/172/2 65/173/2 66/174/2
f 74/175/3 76/176/3 75/177/3 73/178/3
f 76/179/4 80/180/4 79/181/4 75/182/4
f 80/183/1 78/184/1 77/185/1 79/186/1
f 78/187/2 74/188/2 73/189/2 77/190/2
f 82/191/1 84/192/1 83/193/1 81/194/1
f 84/195/2 88/196/2 87/197/2 83/198/2
f 88/199/3 86/200/3 85/201/3 87/202/3
f 86/203/4 82/204/4 81/205/4 85/206/4
f 81/207/5 83/208/5 87/209/5 85/210/5
f 86/211/6 88/212/6 84/213/6 82/214/6
f 90/215/1 92/216/1 91/217/1 89/218/1
f 92/219/2 96/220/2 95/221/2 91/222/2
f 96/223/3 94/224/3 93/225/3 95/226/3
f 94/227/4 90/228/4 89/229/4 93/230/4
f 89/231/5 91/232/5 95/233/5 93/234/5
f 94/235/6 96/236/6 92/237/6 90/238/6
f 98/239/1 97/240/1 99/241/1 100/242/1
f 100/243/4 99/244/4 103/245/4 104/246/4
f 104/247/3 103/248/3 101/249/3 102/250/3
f 102/251/2 101/252/2 97/253/2 98/254/2
f 97/255/5 101/256/5 103/257/5 99/258/5
f 102/259/6 98/260/6 100/261/6 104/262/6
f 106/263/1 105/264/1 107/265/1 108/266/1
f 108/267/4 107/268/4 111/269/4 112/270/4
f 112/271/3 111/272/3 109/273/3 110/274/3
f 110/275/2 109/276/2 105/277/2 106/278/2
f 105/279/5 109/280/5 111/281/5 107/282/5
f 110/283/6 106/284/6 108/285/6 112/286/6
f 114/287/4 116/288/4 115/289/4 113/290/4
f 116/291/1 120/292/1 119/293/1 115/294/1
f 120/295/2 118/296/2 117/297/2 119/298/2
f 118/299/3 114/300/3 113/301/3 117/302/3
f 113/303/5 115/304/5 119/305/5 117/306/5
f 118/307/6 120/308/6 116/309/6 114/310/6
f 122/311/4 124/312/4 123/313/4 121/314/4
f 124/315/1 128/316/1 127/317/1 123/318/1
f 128/319/2 126/320/2 125/321/2 127/322/2
f 126/323/3 122/324/3 121/325/3 125/326/3
f 121/327/5 123/328/5 127/329/5 125/330/5
f 126/331/6 128/332/6 124/333/6 122/334/6
f 130/335/4 129/336/4 131/337/4 132/338/4
f 132/339/3 131/340/3 135/341/3 136/342/3
f 136/343/2 135/344/2 133/345/2 134/346/2
f 134/347/1 133/348/1 129/349/1 130/350/1
f 129/351/5 133/352/5 135/353/5 131/354/5
f 134/355/6 130/356/6 132/357/6 136/358/6
